<?xml version="1.0" encoding="utf-8"?>
<!-- Generator: Adobe Illustrator 20.1.0, SVG Export Plug-In . SVG Version: 6.00 Build 0)  -->
<svg version="1.1" id="Layer_1" xmlns="http://www.w3.org/2000/svg" xmlns:xlink="http://www.w3.org/1999/xlink" x="0px" y="0px"
	 viewBox="0 0 24 24" style="enable-background:new 0 0 24 24;" xml:space="preserve">
<style type="text/css">
	.st0{fill:#028EC8;}
</style>
<g>
	<circle class="st0" cx="11.1" cy="12" r="3"/>
	<path class="st0" d="M21.4,14.1c-0.5-0.2-1.1,0-1.3,0.6l-1.5,3.8l-3-2.2c-0.2-0.1-0.4-0.2-0.6-0.2h-8c-0.2,0-0.4,0.1-0.6,0.2
		l-3,2.2L2,14.6c-0.2-0.5-0.8-0.8-1.3-0.6c-0.5,0.2-0.8,0.8-0.6,1.3l2,5c0.1,0.3,0.4,0.5,0.7,0.6c0.3,0.1,0.6,0,0.9-0.2l3.4-2.5V24
		h8v-5.8l3.4,2.5c0.2,0.1,0.4,0.2,0.6,0.2c0.1,0,0.2,0,0.3,0c0.3-0.1,0.5-0.3,0.7-0.6l2-5C22.2,14.9,21.9,14.3,21.4,14.1z"/>
	<path class="st0" d="M12,6c1.7,0,3-1.3,3-3s-1.3-3-3-3S9,1.3,9,3S10.3,6,12,6z M12,1c1.1,0,2,0.9,2,2s-0.9,2-2,2s-2-0.9-2-2
		S10.9,1,12,1z"/>
	<path class="st0" d="M20,3l-4,7h8L20,3z M20,5l2.3,4h-4.6L20,5z"/>
	<path class="st0" d="M8,8L4,4L0,8l4,4L8,8z M4,5.4L6.6,8L4,10.6L1.4,8L4,5.4z"/>
</g>
</svg>
